<?xml version="1.0" standalone="no"?>
<!DOCTYPE svg PUBLIC "-//W3C//DTD SVG 20010904//EN"
 "http://www.w3.org/TR/2001/REC-SVG-20010904/DTD/svg10.dtd">
<svg version="1.0" xmlns="http://www.w3.org/2000/svg"
 width="89.000000pt" height="75.000000pt" viewBox="0 0 89.000000 75.000000"
 preserveAspectRatio="xMidYMid meet">
<metadata>
Created by potrace 1.16, written by Peter Selinger 2001-2019
</metadata>
<g transform="translate(0.000000,75.000000) scale(0.100000,-0.100000)"
fill="#000000" stroke="none">
<path d="M345 671 c-177 -82 -186 -332 -15 -425 97 -53 216 -33 288 50 66 74
80 170 38 260 -27 58 -80 106 -135 123 -56 16 -130 13 -176 -8z m95 -78 c11
-8 20 -22 20 -33 0 -15 6 -17 39 -13 47 6 76 -8 97 -48 34 -67 -16 -135 -93
-126 -40 4 -43 3 -43 -19 0 -38 -26 -54 -86 -54 -94 0 -94 1 -94 150 0 99 3
132 14 143 20 19 118 19 146 0z"/>
<path d="M300 455 l0 -135 70 0 70 0 0 33 0 32 -55 -3 c-35 -3 -55 0 -55 7 0
7 22 11 56 11 34 0 53 4 49 10 -3 6 -15 10 -26 10 -24 0 -25 17 -1 23 10 3 6
5 -10 6 -16 0 -28 6 -28 11 0 6 12 11 28 11 16 1 20 3 10 6 -25 6 -22 21 5 26
13 3 8 5 -15 6 -51 1 -49 21 2 21 36 0 40 3 40 24 0 26 -21 47 -28 28 -5 -15
-78 -16 -87 -2 -19 30 -25 -2 -25 -125z"/>
<path d="M490 530 c0 -6 -3 -9 -7 -7 -10 6 -34 -19 -26 -27 4 -3 1 -6 -5 -6
-17 0 -11 -68 7 -84 22 -20 81 -30 81 -14 0 6 3 8 6 5 12 -12 42 34 40 61 -2
26 -25 77 -26 57 0 -5 -4 -4 -8 3 -11 16 -62 26 -62 12z"/>
</g>
</svg>
